<mxfile host="Electron" modified="2023-09-13T01:41:29.902Z" agent="Mozilla/5.0 (Windows NT 10.0; Win64; x64) AppleWebKit/537.36 (KHTML, like Gecko) draw.io/21.6.8 Chrome/114.0.5735.289 Electron/25.5.0 Safari/537.36" etag="DxrI8D57V80YIjR5UJFI" version="21.6.8" type="device">
  <diagram id="aDwawLosdVPCG1IDwUIe" name="第 1 页">
    <mxGraphModel dx="1098" dy="988" grid="1" gridSize="10" guides="1" tooltips="1" connect="1" arrows="1" fold="1" page="1" pageScale="1" pageWidth="827" pageHeight="1169" math="0" shadow="0">
      <root>
        <mxCell id="0" />
        <mxCell id="1" parent="0" />
        <mxCell id="xnLj7-2TruJysbAuSxAh-10" value="" style="rounded=0;whiteSpace=wrap;html=1;fontFamily=Times New Roman;" parent="1" vertex="1">
          <mxGeometry x="110" y="610" width="770" height="50" as="geometry" />
        </mxCell>
        <mxCell id="L0ZS-YPESFh29YVmnwte-36" value="" style="whiteSpace=wrap;html=1;aspect=fixed;fillColor=#d5e8d4;strokeColor=#82b366;fontFamily=Times New Roman;" parent="1" vertex="1">
          <mxGeometry x="280" y="420" width="40" height="40" as="geometry" />
        </mxCell>
        <mxCell id="L0ZS-YPESFh29YVmnwte-9" value="" style="whiteSpace=wrap;html=1;aspect=fixed;fillColor=#dae8fc;strokeColor=#6c8ebf;fontFamily=Times New Roman;" parent="1" vertex="1">
          <mxGeometry x="120" y="360" width="40" height="40" as="geometry" />
        </mxCell>
        <mxCell id="L0ZS-YPESFh29YVmnwte-10" value="" style="whiteSpace=wrap;html=1;aspect=fixed;fillColor=#dae8fc;strokeColor=#6c8ebf;fontFamily=Times New Roman;" parent="1" vertex="1">
          <mxGeometry x="180" y="360" width="40" height="40" as="geometry" />
        </mxCell>
        <mxCell id="L0ZS-YPESFh29YVmnwte-14" value="" style="whiteSpace=wrap;html=1;aspect=fixed;fillColor=#dae8fc;strokeColor=#6c8ebf;fontFamily=Times New Roman;" parent="1" vertex="1">
          <mxGeometry x="120" y="420" width="40" height="40" as="geometry" />
        </mxCell>
        <mxCell id="L0ZS-YPESFh29YVmnwte-17" value="" style="whiteSpace=wrap;html=1;aspect=fixed;fillColor=#dae8fc;strokeColor=#6c8ebf;fontFamily=Times New Roman;" parent="1" vertex="1">
          <mxGeometry x="200" y="420" width="40" height="40" as="geometry" />
        </mxCell>
        <mxCell id="L0ZS-YPESFh29YVmnwte-19" value="" style="whiteSpace=wrap;html=1;aspect=fixed;fillColor=#dae8fc;strokeColor=#6c8ebf;fontFamily=Times New Roman;" parent="1" vertex="1">
          <mxGeometry x="120" y="545" width="40" height="40" as="geometry" />
        </mxCell>
        <mxCell id="L0ZS-YPESFh29YVmnwte-20" value="" style="whiteSpace=wrap;html=1;aspect=fixed;fillColor=#d5e8d4;strokeColor=#82b366;fontFamily=Times New Roman;" parent="1" vertex="1">
          <mxGeometry x="240" y="545" width="40" height="40" as="geometry" />
        </mxCell>
        <mxCell id="L0ZS-YPESFh29YVmnwte-21" value="" style="shape=singleArrow;direction=south;whiteSpace=wrap;html=1;fillColor=#d5e8d4;strokeColor=#82b366;fontFamily=Times New Roman;fontStyle=1" parent="1" vertex="1">
          <mxGeometry x="212" y="310" width="16" height="40" as="geometry" />
        </mxCell>
        <mxCell id="L0ZS-YPESFh29YVmnwte-22" value="" style="whiteSpace=wrap;html=1;aspect=fixed;fillColor=#d5e8d4;strokeColor=#82b366;fontFamily=Times New Roman;" parent="1" vertex="1">
          <mxGeometry x="240" y="360" width="40" height="40" as="geometry" />
        </mxCell>
        <mxCell id="L0ZS-YPESFh29YVmnwte-35" value="" style="whiteSpace=wrap;html=1;aspect=fixed;fillColor=#dae8fc;strokeColor=#6c8ebf;fontFamily=Times New Roman;" parent="1" vertex="1">
          <mxGeometry x="180" y="480" width="40" height="40" as="geometry" />
        </mxCell>
        <mxCell id="L0ZS-YPESFh29YVmnwte-38" value="" style="whiteSpace=wrap;html=1;aspect=fixed;fillColor=#dae8fc;strokeColor=#6c8ebf;fontFamily=Times New Roman;" parent="1" vertex="1">
          <mxGeometry x="300" y="360" width="40" height="40" as="geometry" />
        </mxCell>
        <mxCell id="L0ZS-YPESFh29YVmnwte-41" value="" style="whiteSpace=wrap;html=1;aspect=fixed;fillColor=#dae8fc;strokeColor=#6c8ebf;fontFamily=Times New Roman;" parent="1" vertex="1">
          <mxGeometry x="360" y="360" width="40" height="40" as="geometry" />
        </mxCell>
        <mxCell id="L0ZS-YPESFh29YVmnwte-42" value="" style="whiteSpace=wrap;html=1;aspect=fixed;fillColor=#dae8fc;strokeColor=#6c8ebf;fontFamily=Times New Roman;" parent="1" vertex="1">
          <mxGeometry x="360" y="420" width="40" height="40" as="geometry" />
        </mxCell>
        <mxCell id="L0ZS-YPESFh29YVmnwte-43" value="" style="whiteSpace=wrap;html=1;aspect=fixed;fillColor=#d5e8d4;strokeColor=#82b366;fontFamily=Times New Roman;" parent="1" vertex="1">
          <mxGeometry x="400" y="480" width="40" height="40" as="geometry" />
        </mxCell>
        <mxCell id="L0ZS-YPESFh29YVmnwte-44" value="" style="whiteSpace=wrap;html=1;aspect=fixed;fillColor=#dae8fc;strokeColor=#6c8ebf;fontFamily=Times New Roman;" parent="1" vertex="1">
          <mxGeometry x="420" y="360" width="40" height="40" as="geometry" />
        </mxCell>
        <mxCell id="L0ZS-YPESFh29YVmnwte-45" value="" style="whiteSpace=wrap;html=1;aspect=fixed;fillColor=#ffe6cc;strokeColor=#d79b00;fontFamily=Times New Roman;" parent="1" vertex="1">
          <mxGeometry x="440" y="420" width="40" height="40" as="geometry" />
        </mxCell>
        <mxCell id="L0ZS-YPESFh29YVmnwte-46" value="" style="whiteSpace=wrap;html=1;aspect=fixed;fillColor=#ffe6cc;strokeColor=#d79b00;fontFamily=Times New Roman;" parent="1" vertex="1">
          <mxGeometry x="600" y="480" width="40" height="40" as="geometry" />
        </mxCell>
        <mxCell id="L0ZS-YPESFh29YVmnwte-47" value="" style="whiteSpace=wrap;html=1;aspect=fixed;fillColor=#ffe6cc;strokeColor=#d79b00;fontFamily=Times New Roman;" parent="1" vertex="1">
          <mxGeometry x="480" y="545" width="40" height="40" as="geometry" />
        </mxCell>
        <mxCell id="L0ZS-YPESFh29YVmnwte-50" value="" style="whiteSpace=wrap;html=1;aspect=fixed;fillColor=#f8cecc;strokeColor=#b85450;fontFamily=Times New Roman;" parent="1" vertex="1">
          <mxGeometry x="640" y="360" width="40" height="40" as="geometry" />
        </mxCell>
        <mxCell id="L0ZS-YPESFh29YVmnwte-51" value="" style="whiteSpace=wrap;html=1;aspect=fixed;fillColor=#f8cecc;strokeColor=#b85450;fontFamily=Times New Roman;" parent="1" vertex="1">
          <mxGeometry x="640" y="420" width="40" height="40" as="geometry" />
        </mxCell>
        <mxCell id="L0ZS-YPESFh29YVmnwte-53" value="" style="whiteSpace=wrap;html=1;aspect=fixed;fillColor=#f8cecc;strokeColor=#b85450;fontFamily=Times New Roman;" parent="1" vertex="1">
          <mxGeometry x="640" y="545" width="40" height="40" as="geometry" />
        </mxCell>
        <mxCell id="L0ZS-YPESFh29YVmnwte-54" value="" style="whiteSpace=wrap;html=1;aspect=fixed;fillColor=#dae8fc;strokeColor=#6c8ebf;fontFamily=Times New Roman;" parent="1" vertex="1">
          <mxGeometry x="700" y="360" width="40" height="40" as="geometry" />
        </mxCell>
        <mxCell id="L0ZS-YPESFh29YVmnwte-55" value="" style="whiteSpace=wrap;html=1;aspect=fixed;fillColor=#dae8fc;strokeColor=#6c8ebf;fontFamily=Times New Roman;" parent="1" vertex="1">
          <mxGeometry x="760" y="360" width="40" height="40" as="geometry" />
        </mxCell>
        <mxCell id="L0ZS-YPESFh29YVmnwte-56" value="" style="whiteSpace=wrap;html=1;aspect=fixed;fillColor=#dae8fc;strokeColor=#6c8ebf;fontFamily=Times New Roman;" parent="1" vertex="1">
          <mxGeometry x="820" y="360" width="40" height="40" as="geometry" />
        </mxCell>
        <mxCell id="L0ZS-YPESFh29YVmnwte-57" value="" style="whiteSpace=wrap;html=1;aspect=fixed;fillColor=#dae8fc;strokeColor=#6c8ebf;fontFamily=Times New Roman;" parent="1" vertex="1">
          <mxGeometry x="720" y="420" width="40" height="40" as="geometry" />
        </mxCell>
        <mxCell id="L0ZS-YPESFh29YVmnwte-58" value="" style="whiteSpace=wrap;html=1;aspect=fixed;fillColor=#dae8fc;strokeColor=#6c8ebf;fontFamily=Times New Roman;" parent="1" vertex="1">
          <mxGeometry x="800" y="420" width="40" height="40" as="geometry" />
        </mxCell>
        <mxCell id="L0ZS-YPESFh29YVmnwte-59" value="" style="whiteSpace=wrap;html=1;aspect=fixed;fillColor=#dae8fc;strokeColor=#6c8ebf;fontFamily=Times New Roman;" parent="1" vertex="1">
          <mxGeometry x="880" y="360" width="40" height="40" as="geometry" />
        </mxCell>
        <mxCell id="L0ZS-YPESFh29YVmnwte-60" value="" style="whiteSpace=wrap;html=1;aspect=fixed;fillColor=#dae8fc;strokeColor=#6c8ebf;fontFamily=Times New Roman;" parent="1" vertex="1">
          <mxGeometry x="880" y="420" width="40" height="40" as="geometry" />
        </mxCell>
        <mxCell id="L0ZS-YPESFh29YVmnwte-61" value="" style="whiteSpace=wrap;html=1;aspect=fixed;fillColor=#f8cecc;strokeColor=#b85450;fontFamily=Times New Roman;" parent="1" vertex="1">
          <mxGeometry x="740" y="480" width="40" height="40" as="geometry" />
        </mxCell>
        <mxCell id="L0ZS-YPESFh29YVmnwte-62" value="" style="whiteSpace=wrap;html=1;aspect=fixed;fillColor=#dae8fc;strokeColor=#6c8ebf;fontFamily=Times New Roman;" parent="1" vertex="1">
          <mxGeometry x="880" y="480" width="40" height="40" as="geometry" />
        </mxCell>
        <mxCell id="L0ZS-YPESFh29YVmnwte-63" value="" style="whiteSpace=wrap;html=1;aspect=fixed;fillColor=#dae8fc;strokeColor=#6c8ebf;fontFamily=Times New Roman;" parent="1" vertex="1">
          <mxGeometry x="760" y="545" width="40" height="40" as="geometry" />
        </mxCell>
        <mxCell id="L0ZS-YPESFh29YVmnwte-65" value="" style="whiteSpace=wrap;html=1;aspect=fixed;fillColor=#dae8fc;strokeColor=#6c8ebf;fontFamily=Times New Roman;" parent="1" vertex="1">
          <mxGeometry x="880" y="545" width="40" height="40" as="geometry" />
        </mxCell>
        <mxCell id="L0ZS-YPESFh29YVmnwte-68" value="" style="whiteSpace=wrap;html=1;aspect=fixed;fillColor=#dae8fc;strokeColor=#6c8ebf;fontFamily=Times New Roman;" parent="1" vertex="1">
          <mxGeometry x="360" y="545" width="40" height="40" as="geometry" />
        </mxCell>
        <mxCell id="L0ZS-YPESFh29YVmnwte-69" value="" style="whiteSpace=wrap;html=1;aspect=fixed;fillColor=#ffe6cc;strokeColor=#d79b00;fontFamily=Times New Roman;" parent="1" vertex="1">
          <mxGeometry x="480" y="360" width="40" height="40" as="geometry" />
        </mxCell>
        <mxCell id="L0ZS-YPESFh29YVmnwte-70" value="" style="endArrow=classic;html=1;rounded=0;entryX=0;entryY=0.5;entryDx=0;entryDy=0;fontFamily=Times New Roman;" parent="1" target="L0ZS-YPESFh29YVmnwte-10" edge="1">
          <mxGeometry width="50" height="50" relative="1" as="geometry">
            <mxPoint x="160" y="380" as="sourcePoint" />
            <mxPoint x="210" y="330" as="targetPoint" />
          </mxGeometry>
        </mxCell>
        <mxCell id="L0ZS-YPESFh29YVmnwte-71" value="" style="endArrow=classic;html=1;rounded=0;entryX=0;entryY=0.5;entryDx=0;entryDy=0;fontFamily=Times New Roman;" parent="1" edge="1">
          <mxGeometry width="50" height="50" relative="1" as="geometry">
            <mxPoint x="220" y="379.78" as="sourcePoint" />
            <mxPoint x="240" y="379.78" as="targetPoint" />
          </mxGeometry>
        </mxCell>
        <mxCell id="L0ZS-YPESFh29YVmnwte-72" value="" style="endArrow=classic;html=1;rounded=0;entryX=0;entryY=0.5;entryDx=0;entryDy=0;fontFamily=Times New Roman;" parent="1" edge="1">
          <mxGeometry width="50" height="50" relative="1" as="geometry">
            <mxPoint x="280" y="379.78" as="sourcePoint" />
            <mxPoint x="300" y="379.78" as="targetPoint" />
          </mxGeometry>
        </mxCell>
        <mxCell id="L0ZS-YPESFh29YVmnwte-73" value="" style="endArrow=classic;html=1;rounded=0;entryX=0;entryY=0.5;entryDx=0;entryDy=0;fontFamily=Times New Roman;" parent="1" edge="1">
          <mxGeometry width="50" height="50" relative="1" as="geometry">
            <mxPoint x="340" y="379.78" as="sourcePoint" />
            <mxPoint x="360" y="379.78" as="targetPoint" />
          </mxGeometry>
        </mxCell>
        <mxCell id="L0ZS-YPESFh29YVmnwte-74" value="" style="endArrow=classic;html=1;rounded=0;entryX=0;entryY=0.5;entryDx=0;entryDy=0;fontFamily=Times New Roman;" parent="1" edge="1">
          <mxGeometry width="50" height="50" relative="1" as="geometry">
            <mxPoint x="400" y="379.78" as="sourcePoint" />
            <mxPoint x="420" y="379.78" as="targetPoint" />
          </mxGeometry>
        </mxCell>
        <mxCell id="L0ZS-YPESFh29YVmnwte-75" value="" style="endArrow=classic;html=1;rounded=0;entryX=0;entryY=0.5;entryDx=0;entryDy=0;fontFamily=Times New Roman;" parent="1" edge="1">
          <mxGeometry width="50" height="50" relative="1" as="geometry">
            <mxPoint x="460" y="379.78" as="sourcePoint" />
            <mxPoint x="480" y="379.78" as="targetPoint" />
          </mxGeometry>
        </mxCell>
        <mxCell id="L0ZS-YPESFh29YVmnwte-76" value="" style="endArrow=classic;html=1;rounded=0;entryX=0;entryY=0.5;entryDx=0;entryDy=0;fontFamily=Times New Roman;" parent="1" target="L0ZS-YPESFh29YVmnwte-50" edge="1">
          <mxGeometry width="50" height="50" relative="1" as="geometry">
            <mxPoint x="520" y="379.78" as="sourcePoint" />
            <mxPoint x="540" y="379.78" as="targetPoint" />
          </mxGeometry>
        </mxCell>
        <mxCell id="L0ZS-YPESFh29YVmnwte-77" value="" style="endArrow=classic;html=1;rounded=0;entryX=0;entryY=0.5;entryDx=0;entryDy=0;fontFamily=Times New Roman;" parent="1" edge="1">
          <mxGeometry width="50" height="50" relative="1" as="geometry">
            <mxPoint x="680" y="379.78999999999996" as="sourcePoint" />
            <mxPoint x="700" y="379.78999999999996" as="targetPoint" />
          </mxGeometry>
        </mxCell>
        <mxCell id="L0ZS-YPESFh29YVmnwte-78" value="" style="endArrow=classic;html=1;rounded=0;entryX=0;entryY=0.5;entryDx=0;entryDy=0;fontFamily=Times New Roman;" parent="1" edge="1">
          <mxGeometry width="50" height="50" relative="1" as="geometry">
            <mxPoint x="740" y="379.78999999999996" as="sourcePoint" />
            <mxPoint x="760" y="379.78999999999996" as="targetPoint" />
          </mxGeometry>
        </mxCell>
        <mxCell id="L0ZS-YPESFh29YVmnwte-79" value="" style="endArrow=classic;html=1;rounded=0;entryX=0;entryY=0.5;entryDx=0;entryDy=0;fontFamily=Times New Roman;" parent="1" edge="1">
          <mxGeometry width="50" height="50" relative="1" as="geometry">
            <mxPoint x="800" y="379.78999999999996" as="sourcePoint" />
            <mxPoint x="820" y="379.78999999999996" as="targetPoint" />
          </mxGeometry>
        </mxCell>
        <mxCell id="L0ZS-YPESFh29YVmnwte-80" value="" style="endArrow=classic;html=1;rounded=0;entryX=0;entryY=0.5;entryDx=0;entryDy=0;fontFamily=Times New Roman;" parent="1" edge="1">
          <mxGeometry width="50" height="50" relative="1" as="geometry">
            <mxPoint x="860" y="379.78999999999996" as="sourcePoint" />
            <mxPoint x="880" y="379.78999999999996" as="targetPoint" />
          </mxGeometry>
        </mxCell>
        <mxCell id="L0ZS-YPESFh29YVmnwte-81" value="" style="endArrow=classic;html=1;rounded=0;entryX=0;entryY=0.5;entryDx=0;entryDy=0;fontFamily=Times New Roman;" parent="1" edge="1">
          <mxGeometry width="50" height="50" relative="1" as="geometry">
            <mxPoint x="920" y="379.78999999999996" as="sourcePoint" />
            <mxPoint x="940" y="379.78999999999996" as="targetPoint" />
          </mxGeometry>
        </mxCell>
        <mxCell id="L0ZS-YPESFh29YVmnwte-83" value="" style="endArrow=classic;html=1;rounded=0;entryX=0;entryY=0.5;entryDx=0;entryDy=0;fontFamily=Times New Roman;fontStyle=1" parent="1" edge="1">
          <mxGeometry width="50" height="50" relative="1" as="geometry">
            <mxPoint x="100" y="379.75" as="sourcePoint" />
            <mxPoint x="120" y="379.75" as="targetPoint" />
          </mxGeometry>
        </mxCell>
        <mxCell id="L0ZS-YPESFh29YVmnwte-84" value="" style="endArrow=classic;html=1;rounded=0;entryX=0;entryY=0.5;entryDx=0;entryDy=0;fontFamily=Times New Roman;fontStyle=1" parent="1" edge="1">
          <mxGeometry width="50" height="50" relative="1" as="geometry">
            <mxPoint x="100" y="439.75" as="sourcePoint" />
            <mxPoint x="120" y="439.75" as="targetPoint" />
          </mxGeometry>
        </mxCell>
        <mxCell id="L0ZS-YPESFh29YVmnwte-85" value="" style="endArrow=classic;html=1;rounded=0;entryX=0;entryY=0.5;entryDx=0;entryDy=0;fontFamily=Times New Roman;" parent="1" edge="1">
          <mxGeometry width="50" height="50" relative="1" as="geometry">
            <mxPoint x="100" y="500" as="sourcePoint" />
            <mxPoint x="180" y="499.9" as="targetPoint" />
          </mxGeometry>
        </mxCell>
        <mxCell id="L0ZS-YPESFh29YVmnwte-86" value="" style="endArrow=classic;html=1;rounded=0;entryX=0;entryY=0.5;entryDx=0;entryDy=0;fontFamily=Times New Roman;fontStyle=1" parent="1" edge="1">
          <mxGeometry width="50" height="50" relative="1" as="geometry">
            <mxPoint x="100" y="564.79" as="sourcePoint" />
            <mxPoint x="120" y="564.79" as="targetPoint" />
          </mxGeometry>
        </mxCell>
        <mxCell id="L0ZS-YPESFh29YVmnwte-87" value="" style="endArrow=classic;html=1;rounded=0;entryX=0;entryY=0.5;entryDx=0;entryDy=0;fontFamily=Times New Roman;" parent="1" target="L0ZS-YPESFh29YVmnwte-17" edge="1">
          <mxGeometry width="50" height="50" relative="1" as="geometry">
            <mxPoint x="160" y="439.78999999999996" as="sourcePoint" />
            <mxPoint x="180" y="439.78999999999996" as="targetPoint" />
          </mxGeometry>
        </mxCell>
        <mxCell id="L0ZS-YPESFh29YVmnwte-88" value="" style="endArrow=classic;html=1;rounded=0;entryX=0;entryY=0.5;entryDx=0;entryDy=0;fontFamily=Times New Roman;" parent="1" edge="1">
          <mxGeometry width="50" height="50" relative="1" as="geometry">
            <mxPoint x="240" y="439.7900000000001" as="sourcePoint" />
            <mxPoint x="280" y="440" as="targetPoint" />
          </mxGeometry>
        </mxCell>
        <mxCell id="L0ZS-YPESFh29YVmnwte-89" value="" style="endArrow=classic;html=1;rounded=0;entryX=0;entryY=0.5;entryDx=0;entryDy=0;fontFamily=Times New Roman;" parent="1" edge="1">
          <mxGeometry width="50" height="50" relative="1" as="geometry">
            <mxPoint x="320" y="439.7900000000001" as="sourcePoint" />
            <mxPoint x="360" y="440" as="targetPoint" />
          </mxGeometry>
        </mxCell>
        <mxCell id="L0ZS-YPESFh29YVmnwte-90" value="" style="endArrow=classic;html=1;rounded=0;entryX=0;entryY=0.5;entryDx=0;entryDy=0;fontFamily=Times New Roman;" parent="1" edge="1">
          <mxGeometry width="50" height="50" relative="1" as="geometry">
            <mxPoint x="400" y="439.7900000000001" as="sourcePoint" />
            <mxPoint x="440" y="440" as="targetPoint" />
          </mxGeometry>
        </mxCell>
        <mxCell id="L0ZS-YPESFh29YVmnwte-91" value="" style="endArrow=classic;html=1;rounded=0;entryX=0;entryY=0.5;entryDx=0;entryDy=0;fontFamily=Times New Roman;" parent="1" target="L0ZS-YPESFh29YVmnwte-51" edge="1">
          <mxGeometry width="50" height="50" relative="1" as="geometry">
            <mxPoint x="480" y="439.7900000000001" as="sourcePoint" />
            <mxPoint x="520" y="440" as="targetPoint" />
          </mxGeometry>
        </mxCell>
        <mxCell id="L0ZS-YPESFh29YVmnwte-92" value="" style="endArrow=classic;html=1;rounded=0;entryX=0;entryY=0.5;entryDx=0;entryDy=0;fontFamily=Times New Roman;" parent="1" edge="1">
          <mxGeometry width="50" height="50" relative="1" as="geometry">
            <mxPoint x="680" y="439.86000000000007" as="sourcePoint" />
            <mxPoint x="720" y="440.07" as="targetPoint" />
          </mxGeometry>
        </mxCell>
        <mxCell id="L0ZS-YPESFh29YVmnwte-93" value="" style="endArrow=classic;html=1;rounded=0;entryX=0;entryY=0.5;entryDx=0;entryDy=0;fontFamily=Times New Roman;" parent="1" edge="1">
          <mxGeometry width="50" height="50" relative="1" as="geometry">
            <mxPoint x="760" y="439.86" as="sourcePoint" />
            <mxPoint x="800" y="440.06999999999994" as="targetPoint" />
          </mxGeometry>
        </mxCell>
        <mxCell id="L0ZS-YPESFh29YVmnwte-94" value="" style="endArrow=classic;html=1;rounded=0;entryX=0;entryY=0.5;entryDx=0;entryDy=0;fontFamily=Times New Roman;" parent="1" edge="1">
          <mxGeometry width="50" height="50" relative="1" as="geometry">
            <mxPoint x="840" y="439.71000000000004" as="sourcePoint" />
            <mxPoint x="880" y="439.91999999999996" as="targetPoint" />
          </mxGeometry>
        </mxCell>
        <mxCell id="L0ZS-YPESFh29YVmnwte-95" value="" style="endArrow=classic;html=1;rounded=0;fontFamily=Times New Roman;" parent="1" edge="1">
          <mxGeometry width="50" height="50" relative="1" as="geometry">
            <mxPoint x="920" y="439.71000000000004" as="sourcePoint" />
            <mxPoint x="940" y="440" as="targetPoint" />
          </mxGeometry>
        </mxCell>
        <mxCell id="L0ZS-YPESFh29YVmnwte-96" value="" style="endArrow=classic;html=1;rounded=0;entryX=0;entryY=0.5;entryDx=0;entryDy=0;fontFamily=Times New Roman;" parent="1" target="L0ZS-YPESFh29YVmnwte-20" edge="1">
          <mxGeometry width="50" height="50" relative="1" as="geometry">
            <mxPoint x="160" y="564.9" as="sourcePoint" />
            <mxPoint x="180" y="564.9" as="targetPoint" />
          </mxGeometry>
        </mxCell>
        <mxCell id="L0ZS-YPESFh29YVmnwte-97" value="" style="endArrow=classic;html=1;rounded=0;entryX=0;entryY=0.5;entryDx=0;entryDy=0;fontFamily=Times New Roman;" parent="1" edge="1">
          <mxGeometry width="50" height="50" relative="1" as="geometry">
            <mxPoint x="280" y="564.71" as="sourcePoint" />
            <mxPoint x="360" y="564.81" as="targetPoint" />
          </mxGeometry>
        </mxCell>
        <mxCell id="L0ZS-YPESFh29YVmnwte-98" value="" style="endArrow=classic;html=1;rounded=0;entryX=0;entryY=0.5;entryDx=0;entryDy=0;fontFamily=Times New Roman;" parent="1" edge="1">
          <mxGeometry width="50" height="50" relative="1" as="geometry">
            <mxPoint x="400" y="564.7100000000003" as="sourcePoint" />
            <mxPoint x="480" y="564.81" as="targetPoint" />
          </mxGeometry>
        </mxCell>
        <mxCell id="L0ZS-YPESFh29YVmnwte-99" value="" style="endArrow=classic;html=1;rounded=0;entryX=0;entryY=0.5;entryDx=0;entryDy=0;fontFamily=Times New Roman;" parent="1" target="L0ZS-YPESFh29YVmnwte-53" edge="1">
          <mxGeometry width="50" height="50" relative="1" as="geometry">
            <mxPoint x="520" y="564.7100000000003" as="sourcePoint" />
            <mxPoint x="600" y="564.81" as="targetPoint" />
          </mxGeometry>
        </mxCell>
        <mxCell id="L0ZS-YPESFh29YVmnwte-100" value="" style="endArrow=classic;html=1;rounded=0;fontFamily=Times New Roman;" parent="1" edge="1">
          <mxGeometry width="50" height="50" relative="1" as="geometry">
            <mxPoint x="680" y="564.7100000000003" as="sourcePoint" />
            <mxPoint x="760" y="565" as="targetPoint" />
          </mxGeometry>
        </mxCell>
        <mxCell id="L0ZS-YPESFh29YVmnwte-101" value="" style="endArrow=classic;html=1;rounded=0;fontFamily=Times New Roman;" parent="1" edge="1">
          <mxGeometry width="50" height="50" relative="1" as="geometry">
            <mxPoint x="800" y="564.7100000000003" as="sourcePoint" />
            <mxPoint x="880" y="565" as="targetPoint" />
          </mxGeometry>
        </mxCell>
        <mxCell id="L0ZS-YPESFh29YVmnwte-102" value="" style="endArrow=classic;html=1;rounded=0;fontFamily=Times New Roman;" parent="1" edge="1">
          <mxGeometry width="50" height="50" relative="1" as="geometry">
            <mxPoint x="920" y="500" as="sourcePoint" />
            <mxPoint x="940" y="500" as="targetPoint" />
          </mxGeometry>
        </mxCell>
        <mxCell id="L0ZS-YPESFh29YVmnwte-103" value="" style="endArrow=classic;html=1;rounded=0;fontFamily=Times New Roman;" parent="1" edge="1">
          <mxGeometry width="50" height="50" relative="1" as="geometry">
            <mxPoint x="920" y="564.89" as="sourcePoint" />
            <mxPoint x="940" y="565" as="targetPoint" />
          </mxGeometry>
        </mxCell>
        <mxCell id="L0ZS-YPESFh29YVmnwte-104" value="" style="endArrow=classic;html=1;rounded=0;entryX=0;entryY=0.5;entryDx=0;entryDy=0;fontFamily=Times New Roman;" parent="1" target="L0ZS-YPESFh29YVmnwte-43" edge="1">
          <mxGeometry width="50" height="50" relative="1" as="geometry">
            <mxPoint x="220" y="499.7099999999999" as="sourcePoint" />
            <mxPoint x="380" y="499.91999999999996" as="targetPoint" />
          </mxGeometry>
        </mxCell>
        <mxCell id="L0ZS-YPESFh29YVmnwte-105" value="" style="endArrow=classic;html=1;rounded=0;fontFamily=Times New Roman;" parent="1" edge="1">
          <mxGeometry width="50" height="50" relative="1" as="geometry">
            <mxPoint x="440" y="499.71000000000026" as="sourcePoint" />
            <mxPoint x="600" y="500" as="targetPoint" />
          </mxGeometry>
        </mxCell>
        <mxCell id="L0ZS-YPESFh29YVmnwte-106" value="" style="endArrow=classic;html=1;rounded=0;fontFamily=Times New Roman;" parent="1" edge="1">
          <mxGeometry width="50" height="50" relative="1" as="geometry">
            <mxPoint x="640" y="499.71000000000026" as="sourcePoint" />
            <mxPoint x="740" y="500" as="targetPoint" />
          </mxGeometry>
        </mxCell>
        <mxCell id="L0ZS-YPESFh29YVmnwte-107" value="" style="endArrow=classic;html=1;rounded=0;entryX=0;entryY=0.5;entryDx=0;entryDy=0;fontFamily=Times New Roman;" parent="1" target="L0ZS-YPESFh29YVmnwte-62" edge="1">
          <mxGeometry width="50" height="50" relative="1" as="geometry">
            <mxPoint x="780" y="499.71000000000026" as="sourcePoint" />
            <mxPoint x="870" y="500" as="targetPoint" />
          </mxGeometry>
        </mxCell>
        <mxCell id="L0ZS-YPESFh29YVmnwte-108" value="" style="shape=singleArrow;direction=south;whiteSpace=wrap;html=1;fillColor=#ffe6cc;strokeColor=#d79b00;fontFamily=Times New Roman;fontStyle=1" parent="1" vertex="1">
          <mxGeometry x="432" y="310" width="16" height="40" as="geometry" />
        </mxCell>
        <mxCell id="L0ZS-YPESFh29YVmnwte-109" value="" style="shape=singleArrow;direction=south;whiteSpace=wrap;html=1;fillColor=#f8cecc;strokeColor=#b85450;fontFamily=Times New Roman;fontStyle=1" parent="1" vertex="1">
          <mxGeometry x="630" y="310" width="16" height="40" as="geometry" />
        </mxCell>
        <mxCell id="L0ZS-YPESFh29YVmnwte-111" value="Prepare Phase" style="text;html=1;strokeColor=none;fillColor=none;align=center;verticalAlign=middle;whiteSpace=wrap;rounded=0;dashed=1;opacity=50;fontSize=14;fontFamily=Times New Roman;fontStyle=1" parent="1" vertex="1">
          <mxGeometry x="228" y="310" width="60" height="30" as="geometry" />
        </mxCell>
        <mxCell id="L0ZS-YPESFh29YVmnwte-112" value="Allocation Phase" style="text;html=1;strokeColor=none;fillColor=none;align=center;verticalAlign=middle;whiteSpace=wrap;rounded=0;dashed=1;opacity=50;fontSize=14;fontFamily=Times New Roman;fontStyle=1" parent="1" vertex="1">
          <mxGeometry x="448" y="310" width="60" height="30" as="geometry" />
        </mxCell>
        <mxCell id="L0ZS-YPESFh29YVmnwte-113" value="State Phase" style="text;html=1;strokeColor=none;fillColor=none;align=center;verticalAlign=middle;whiteSpace=wrap;rounded=0;dashed=1;opacity=50;fontSize=14;fontFamily=Times New Roman;fontStyle=1" parent="1" vertex="1">
          <mxGeometry x="646" y="310" width="60" height="30" as="geometry" />
        </mxCell>
        <mxCell id="L0ZS-YPESFh29YVmnwte-114" value="Shard 0" style="text;html=1;strokeColor=none;fillColor=none;align=center;verticalAlign=middle;whiteSpace=wrap;rounded=0;dashed=1;opacity=50;fontSize=14;fontFamily=Times New Roman;fontStyle=1" parent="1" vertex="1">
          <mxGeometry x="50" y="350" width="60" height="30" as="geometry" />
        </mxCell>
        <mxCell id="L0ZS-YPESFh29YVmnwte-115" value="Shard 1" style="text;html=1;strokeColor=none;fillColor=none;align=center;verticalAlign=middle;whiteSpace=wrap;rounded=0;dashed=1;opacity=50;fontSize=14;fontFamily=Times New Roman;fontStyle=1" parent="1" vertex="1">
          <mxGeometry x="50" y="410" width="60" height="30" as="geometry" />
        </mxCell>
        <mxCell id="L0ZS-YPESFh29YVmnwte-116" value="Shard 2" style="text;html=1;strokeColor=none;fillColor=none;align=center;verticalAlign=middle;whiteSpace=wrap;rounded=0;dashed=1;opacity=50;fontSize=14;fontFamily=Times New Roman;fontStyle=1" parent="1" vertex="1">
          <mxGeometry x="50" y="470" width="60" height="30" as="geometry" />
        </mxCell>
        <mxCell id="L0ZS-YPESFh29YVmnwte-117" value="Shard 3" style="text;html=1;strokeColor=none;fillColor=none;align=center;verticalAlign=middle;whiteSpace=wrap;rounded=0;dashed=1;opacity=50;fontSize=14;fontFamily=Times New Roman;fontStyle=1" parent="1" vertex="1">
          <mxGeometry x="50" y="535" width="60" height="30" as="geometry" />
        </mxCell>
        <mxCell id="xnLj7-2TruJysbAuSxAh-1" value="" style="whiteSpace=wrap;html=1;aspect=fixed;fillColor=#dae8fc;strokeColor=#6c8ebf;fontFamily=Times New Roman;" parent="1" vertex="1">
          <mxGeometry x="160" y="620" width="30" height="30" as="geometry" />
        </mxCell>
        <mxCell id="xnLj7-2TruJysbAuSxAh-3" value="" style="whiteSpace=wrap;html=1;aspect=fixed;fillColor=#d5e8d4;strokeColor=#82b366;fontFamily=Times New Roman;" parent="1" vertex="1">
          <mxGeometry x="347" y="620" width="30" height="30" as="geometry" />
        </mxCell>
        <mxCell id="xnLj7-2TruJysbAuSxAh-4" value="" style="whiteSpace=wrap;html=1;aspect=fixed;fillColor=#ffe6cc;strokeColor=#d79b00;fontFamily=Times New Roman;" parent="1" vertex="1">
          <mxGeometry x="533" y="620" width="30" height="30" as="geometry" />
        </mxCell>
        <mxCell id="xnLj7-2TruJysbAuSxAh-5" value="" style="whiteSpace=wrap;html=1;aspect=fixed;fillColor=#f8cecc;strokeColor=#b85450;fontFamily=Times New Roman;" parent="1" vertex="1">
          <mxGeometry x="720" y="620" width="30" height="30" as="geometry" />
        </mxCell>
        <mxCell id="xnLj7-2TruJysbAuSxAh-6" value="：Shard Block" style="text;html=1;strokeColor=none;fillColor=none;align=center;verticalAlign=middle;whiteSpace=wrap;rounded=0;fontFamily=Times New Roman;" parent="1" vertex="1">
          <mxGeometry x="190" y="620" width="92" height="30" as="geometry" />
        </mxCell>
        <mxCell id="xnLj7-2TruJysbAuSxAh-7" value="：Prepare Block" style="text;html=1;strokeColor=none;fillColor=none;align=center;verticalAlign=middle;whiteSpace=wrap;rounded=0;fontFamily=Times New Roman;" parent="1" vertex="1">
          <mxGeometry x="380" y="620" width="92" height="30" as="geometry" />
        </mxCell>
        <mxCell id="xnLj7-2TruJysbAuSxAh-8" value="：Allocation Block" style="text;html=1;strokeColor=none;fillColor=none;align=center;verticalAlign=middle;whiteSpace=wrap;rounded=0;fontFamily=Times New Roman;" parent="1" vertex="1">
          <mxGeometry x="563" y="620" width="107" height="30" as="geometry" />
        </mxCell>
        <mxCell id="xnLj7-2TruJysbAuSxAh-9" value="：State Block" style="text;html=1;strokeColor=none;fillColor=none;align=center;verticalAlign=middle;whiteSpace=wrap;rounded=0;fontFamily=Times New Roman;" parent="1" vertex="1">
          <mxGeometry x="753" y="620" width="77" height="30" as="geometry" />
        </mxCell>
      </root>
    </mxGraphModel>
  </diagram>
</mxfile>
